<mxfile host="app.diagrams.net" modified="2021-09-21T03:10:33.344Z" agent="5.0 (Macintosh; Intel Mac OS X 10_15_7) AppleWebKit/537.36 (KHTML, like Gecko) Chrome/93.0.4577.82 Safari/537.36" etag="KQWQ831vzG78JbA2Yr3F" version="15.2.9" type="github">
  <diagram id="pcMRJrHT4qX1q3dCZ_wG" name="Page-1">
    <mxGraphModel dx="1935" dy="1090" grid="1" gridSize="10" guides="1" tooltips="1" connect="1" arrows="1" fold="1" page="1" pageScale="1" pageWidth="1169" pageHeight="1654" math="0" shadow="0">
      <root>
        <mxCell id="0" />
        <mxCell id="1" parent="0" />
        <mxCell id="3H7TGqUs7MVSZsyH9gZ0-3" value="" style="edgeStyle=orthogonalEdgeStyle;rounded=0;orthogonalLoop=1;jettySize=auto;html=1;" edge="1" parent="1" source="3H7TGqUs7MVSZsyH9gZ0-1" target="3H7TGqUs7MVSZsyH9gZ0-2">
          <mxGeometry relative="1" as="geometry" />
        </mxCell>
        <mxCell id="3H7TGqUs7MVSZsyH9gZ0-1" value="开始" style="rounded=1;whiteSpace=wrap;html=1;" vertex="1" parent="1">
          <mxGeometry x="360" y="20" width="70" height="30" as="geometry" />
        </mxCell>
        <mxCell id="3H7TGqUs7MVSZsyH9gZ0-5" value="" style="edgeStyle=orthogonalEdgeStyle;rounded=0;orthogonalLoop=1;jettySize=auto;html=1;" edge="1" parent="1" source="3H7TGqUs7MVSZsyH9gZ0-2" target="3H7TGqUs7MVSZsyH9gZ0-4">
          <mxGeometry relative="1" as="geometry" />
        </mxCell>
        <mxCell id="3H7TGqUs7MVSZsyH9gZ0-2" value="输入二叉树指针cur&lt;br&gt;和插入的元素NewData" style="shape=parallelogram;perimeter=parallelogramPerimeter;whiteSpace=wrap;html=1;fixedSize=1;" vertex="1" parent="1">
          <mxGeometry x="317.5" y="80" width="155" height="40" as="geometry" />
        </mxCell>
        <mxCell id="3H7TGqUs7MVSZsyH9gZ0-10" value="" style="edgeStyle=orthogonalEdgeStyle;rounded=0;orthogonalLoop=1;jettySize=auto;html=1;" edge="1" parent="1" source="3H7TGqUs7MVSZsyH9gZ0-4" target="3H7TGqUs7MVSZsyH9gZ0-6">
          <mxGeometry relative="1" as="geometry" />
        </mxCell>
        <mxCell id="3H7TGqUs7MVSZsyH9gZ0-4" value="cur == NULL" style="rhombus;whiteSpace=wrap;html=1;" vertex="1" parent="1">
          <mxGeometry x="352.5" y="150" width="85" height="60" as="geometry" />
        </mxCell>
        <mxCell id="3H7TGqUs7MVSZsyH9gZ0-9" value="" style="edgeStyle=orthogonalEdgeStyle;rounded=0;orthogonalLoop=1;jettySize=auto;html=1;" edge="1" parent="1" source="3H7TGqUs7MVSZsyH9gZ0-6" target="3H7TGqUs7MVSZsyH9gZ0-7">
          <mxGeometry relative="1" as="geometry" />
        </mxCell>
        <mxCell id="3H7TGqUs7MVSZsyH9gZ0-12" value="" style="edgeStyle=orthogonalEdgeStyle;rounded=0;orthogonalLoop=1;jettySize=auto;html=1;" edge="1" parent="1" source="3H7TGqUs7MVSZsyH9gZ0-6" target="3H7TGqUs7MVSZsyH9gZ0-11">
          <mxGeometry relative="1" as="geometry" />
        </mxCell>
        <mxCell id="3H7TGqUs7MVSZsyH9gZ0-16" value="" style="edgeStyle=orthogonalEdgeStyle;rounded=0;orthogonalLoop=1;jettySize=auto;html=1;" edge="1" parent="1" source="3H7TGqUs7MVSZsyH9gZ0-6" target="3H7TGqUs7MVSZsyH9gZ0-15">
          <mxGeometry relative="1" as="geometry" />
        </mxCell>
        <mxCell id="3H7TGqUs7MVSZsyH9gZ0-6" value="(cur = (BSTree *)malloc(sizeof(BSTree))) == NULL" style="rhombus;whiteSpace=wrap;html=1;" vertex="1" parent="1">
          <mxGeometry x="231.25" y="240" width="327.5" height="50" as="geometry" />
        </mxCell>
        <mxCell id="3H7TGqUs7MVSZsyH9gZ0-7" value="printf(&quot;内存不足&quot;);&lt;br&gt;exit(0);" style="rounded=0;whiteSpace=wrap;html=1;" vertex="1" parent="1">
          <mxGeometry x="610" y="245" width="120" height="40" as="geometry" />
        </mxCell>
        <mxCell id="3H7TGqUs7MVSZsyH9gZ0-11" value="cur-&amp;gt;data = NewData;&lt;br&gt;cur-&amp;gt;left = NULL;&lt;br&gt;cur-&amp;gt;right = NULL;&lt;br&gt;return cur;" style="whiteSpace=wrap;html=1;" vertex="1" parent="1">
          <mxGeometry x="30" y="235" width="155" height="60" as="geometry" />
        </mxCell>
        <mxCell id="3H7TGqUs7MVSZsyH9gZ0-13" value="Yes" style="text;html=1;align=center;verticalAlign=middle;resizable=0;points=[];autosize=1;strokeColor=none;fillColor=none;" vertex="1" parent="1">
          <mxGeometry x="550" y="240" width="40" height="20" as="geometry" />
        </mxCell>
        <mxCell id="3H7TGqUs7MVSZsyH9gZ0-14" value="No" style="text;html=1;align=center;verticalAlign=middle;resizable=0;points=[];autosize=1;strokeColor=none;fillColor=none;" vertex="1" parent="1">
          <mxGeometry x="205" y="240" width="30" height="20" as="geometry" />
        </mxCell>
        <mxCell id="3H7TGqUs7MVSZsyH9gZ0-19" value="" style="edgeStyle=orthogonalEdgeStyle;rounded=0;orthogonalLoop=1;jettySize=auto;html=1;" edge="1" parent="1" source="3H7TGqUs7MVSZsyH9gZ0-15" target="3H7TGqUs7MVSZsyH9gZ0-17">
          <mxGeometry relative="1" as="geometry" />
        </mxCell>
        <mxCell id="3H7TGqUs7MVSZsyH9gZ0-22" value="" style="edgeStyle=orthogonalEdgeStyle;rounded=0;orthogonalLoop=1;jettySize=auto;html=1;" edge="1" parent="1" source="3H7TGqUs7MVSZsyH9gZ0-15" target="3H7TGqUs7MVSZsyH9gZ0-21">
          <mxGeometry relative="1" as="geometry" />
        </mxCell>
        <mxCell id="3H7TGqUs7MVSZsyH9gZ0-15" value="NewData &amp;gt; cur-&amp;gt;data" style="rhombus;whiteSpace=wrap;html=1;" vertex="1" parent="1">
          <mxGeometry x="300" y="350" width="190" height="50" as="geometry" />
        </mxCell>
        <mxCell id="3H7TGqUs7MVSZsyH9gZ0-17" value="cur-&amp;gt;right = AddNewNode(cur-&amp;gt;right,NewData);" style="rounded=0;whiteSpace=wrap;html=1;" vertex="1" parent="1">
          <mxGeometry x="530" y="360" width="265" height="30" as="geometry" />
        </mxCell>
        <mxCell id="3H7TGqUs7MVSZsyH9gZ0-20" value="Yes" style="text;html=1;align=center;verticalAlign=middle;resizable=0;points=[];autosize=1;strokeColor=none;fillColor=none;" vertex="1" parent="1">
          <mxGeometry x="480" y="350" width="40" height="20" as="geometry" />
        </mxCell>
        <mxCell id="3H7TGqUs7MVSZsyH9gZ0-24" value="" style="edgeStyle=orthogonalEdgeStyle;rounded=0;orthogonalLoop=1;jettySize=auto;html=1;" edge="1" parent="1" source="3H7TGqUs7MVSZsyH9gZ0-21" target="3H7TGqUs7MVSZsyH9gZ0-23">
          <mxGeometry relative="1" as="geometry" />
        </mxCell>
        <mxCell id="3H7TGqUs7MVSZsyH9gZ0-27" value="" style="edgeStyle=orthogonalEdgeStyle;rounded=0;orthogonalLoop=1;jettySize=auto;html=1;" edge="1" parent="1" source="3H7TGqUs7MVSZsyH9gZ0-21" target="3H7TGqUs7MVSZsyH9gZ0-26">
          <mxGeometry relative="1" as="geometry" />
        </mxCell>
        <mxCell id="3H7TGqUs7MVSZsyH9gZ0-21" value="NewData &amp;lt; cur-&amp;gt;data" style="rhombus;whiteSpace=wrap;html=1;" vertex="1" parent="1">
          <mxGeometry x="300" y="460" width="190" height="50" as="geometry" />
        </mxCell>
        <mxCell id="3H7TGqUs7MVSZsyH9gZ0-23" value="cur-&amp;gt;left = AddNewNode(cur-&amp;gt;left,NewData);" style="rounded=0;whiteSpace=wrap;html=1;" vertex="1" parent="1">
          <mxGeometry x="537.5" y="470" width="265" height="30" as="geometry" />
        </mxCell>
        <mxCell id="3H7TGqUs7MVSZsyH9gZ0-25" value="Yes" style="text;html=1;align=center;verticalAlign=middle;resizable=0;points=[];autosize=1;strokeColor=none;fillColor=none;" vertex="1" parent="1">
          <mxGeometry x="480" y="460" width="40" height="20" as="geometry" />
        </mxCell>
        <mxCell id="3H7TGqUs7MVSZsyH9gZ0-29" value="" style="edgeStyle=orthogonalEdgeStyle;rounded=0;orthogonalLoop=1;jettySize=auto;html=1;" edge="1" parent="1" source="3H7TGqUs7MVSZsyH9gZ0-26" target="3H7TGqUs7MVSZsyH9gZ0-28">
          <mxGeometry relative="1" as="geometry" />
        </mxCell>
        <mxCell id="3H7TGqUs7MVSZsyH9gZ0-26" value="NewData == cur-&amp;gt;data" style="rhombus;whiteSpace=wrap;html=1;" vertex="1" parent="1">
          <mxGeometry x="300" y="570" width="190" height="50" as="geometry" />
        </mxCell>
        <mxCell id="3H7TGqUs7MVSZsyH9gZ0-33" value="" style="edgeStyle=orthogonalEdgeStyle;rounded=0;orthogonalLoop=1;jettySize=auto;html=1;" edge="1" parent="1" source="3H7TGqUs7MVSZsyH9gZ0-28" target="3H7TGqUs7MVSZsyH9gZ0-32">
          <mxGeometry relative="1" as="geometry" />
        </mxCell>
        <mxCell id="3H7TGqUs7MVSZsyH9gZ0-28" value="printf(&quot;不允许插入重复值\n&quot;)；&lt;br&gt;exit(0);" style="whiteSpace=wrap;html=1;" vertex="1" parent="1">
          <mxGeometry x="312.5" y="695" width="165" height="45" as="geometry" />
        </mxCell>
        <mxCell id="3H7TGqUs7MVSZsyH9gZ0-30" value="结束" style="rounded=1;whiteSpace=wrap;html=1;" vertex="1" parent="1">
          <mxGeometry x="347.5" y="870" width="95" height="30" as="geometry" />
        </mxCell>
        <mxCell id="3H7TGqUs7MVSZsyH9gZ0-34" value="" style="edgeStyle=orthogonalEdgeStyle;rounded=0;orthogonalLoop=1;jettySize=auto;html=1;" edge="1" parent="1" source="3H7TGqUs7MVSZsyH9gZ0-32" target="3H7TGqUs7MVSZsyH9gZ0-30">
          <mxGeometry relative="1" as="geometry" />
        </mxCell>
        <mxCell id="3H7TGqUs7MVSZsyH9gZ0-32" value="printf(&quot;不允许插入重复值\n&quot;);" style="rounded=0;whiteSpace=wrap;html=1;" vertex="1" parent="1">
          <mxGeometry x="317.5" y="770" width="155" height="40" as="geometry" />
        </mxCell>
        <mxCell id="3H7TGqUs7MVSZsyH9gZ0-35" value="Yes" style="text;html=1;align=center;verticalAlign=middle;resizable=0;points=[];autosize=1;strokeColor=none;fillColor=none;" vertex="1" parent="1">
          <mxGeometry x="390" y="630" width="40" height="20" as="geometry" />
        </mxCell>
        <mxCell id="3H7TGqUs7MVSZsyH9gZ0-36" value="No" style="text;html=1;align=center;verticalAlign=middle;resizable=0;points=[];autosize=1;strokeColor=none;fillColor=none;" vertex="1" parent="1">
          <mxGeometry x="395" y="520" width="30" height="20" as="geometry" />
        </mxCell>
        <mxCell id="3H7TGqUs7MVSZsyH9gZ0-37" value="No" style="text;html=1;align=center;verticalAlign=middle;resizable=0;points=[];autosize=1;strokeColor=none;fillColor=none;" vertex="1" parent="1">
          <mxGeometry x="395" y="400" width="30" height="20" as="geometry" />
        </mxCell>
        <mxCell id="3H7TGqUs7MVSZsyH9gZ0-38" value="" style="endArrow=classic;html=1;entryX=1;entryY=0.5;entryDx=0;entryDy=0;startArrow=none;" edge="1" parent="1" target="3H7TGqUs7MVSZsyH9gZ0-2">
          <mxGeometry width="50" height="50" relative="1" as="geometry">
            <mxPoint x="840" y="100" as="sourcePoint" />
            <mxPoint x="800" y="310" as="targetPoint" />
            <Array as="points" />
          </mxGeometry>
        </mxCell>
        <mxCell id="3H7TGqUs7MVSZsyH9gZ0-39" value="" style="endArrow=none;html=1;exitX=1;exitY=0.5;exitDx=0;exitDy=0;" edge="1" parent="1" source="3H7TGqUs7MVSZsyH9gZ0-23">
          <mxGeometry width="50" height="50" relative="1" as="geometry">
            <mxPoint x="750" y="360" as="sourcePoint" />
            <mxPoint x="840" y="360" as="targetPoint" />
            <Array as="points">
              <mxPoint x="840" y="485" />
            </Array>
          </mxGeometry>
        </mxCell>
        <mxCell id="3H7TGqUs7MVSZsyH9gZ0-40" value="" style="endArrow=classic;html=1;exitX=0.5;exitY=1;exitDx=0;exitDy=0;" edge="1" parent="1" source="3H7TGqUs7MVSZsyH9gZ0-11">
          <mxGeometry width="50" height="50" relative="1" as="geometry">
            <mxPoint x="530" y="500" as="sourcePoint" />
            <mxPoint x="390" y="840" as="targetPoint" />
            <Array as="points">
              <mxPoint x="108" y="840" />
            </Array>
          </mxGeometry>
        </mxCell>
        <mxCell id="3H7TGqUs7MVSZsyH9gZ0-41" value="Yes" style="text;html=1;align=center;verticalAlign=middle;resizable=0;points=[];autosize=1;strokeColor=none;fillColor=none;" vertex="1" parent="1">
          <mxGeometry x="390" y="220" width="40" height="20" as="geometry" />
        </mxCell>
        <mxCell id="3H7TGqUs7MVSZsyH9gZ0-42" value="" style="shape=requiredInterface;html=1;verticalLabelPosition=bottom;direction=north;" vertex="1" parent="1">
          <mxGeometry x="830" y="256" width="20" height="10" as="geometry" />
        </mxCell>
        <mxCell id="3H7TGqUs7MVSZsyH9gZ0-44" value="" style="endArrow=none;html=1;exitX=1;exitY=0.5;exitDx=0;exitDy=0;entryX=1;entryY=0.5;entryDx=0;entryDy=0;" edge="1" parent="1">
          <mxGeometry width="50" height="50" relative="1" as="geometry">
            <mxPoint x="794.9999999999999" y="369.99999999999994" as="sourcePoint" />
            <mxPoint x="839.9999999999999" y="255" as="targetPoint" />
            <Array as="points">
              <mxPoint x="840" y="370" />
              <mxPoint x="840" y="95" />
            </Array>
          </mxGeometry>
        </mxCell>
        <mxCell id="3H7TGqUs7MVSZsyH9gZ0-45" value="" style="endArrow=none;html=1;exitX=1;exitY=0.5;exitDx=0;exitDy=0;" edge="1" parent="1" source="3H7TGqUs7MVSZsyH9gZ0-7">
          <mxGeometry width="50" height="50" relative="1" as="geometry">
            <mxPoint x="830" y="300" as="sourcePoint" />
            <mxPoint x="830" y="265" as="targetPoint" />
          </mxGeometry>
        </mxCell>
        <mxCell id="3H7TGqUs7MVSZsyH9gZ0-46" value="" style="endArrow=classic;html=1;exitX=0.15;exitY=1.042;exitDx=0;exitDy=0;exitPerimeter=0;" edge="1" parent="1" source="3H7TGqUs7MVSZsyH9gZ0-42">
          <mxGeometry width="50" height="50" relative="1" as="geometry">
            <mxPoint x="830" y="440" as="sourcePoint" />
            <mxPoint x="400" y="840" as="targetPoint" />
            <Array as="points">
              <mxPoint x="900" y="265" />
              <mxPoint x="900" y="840" />
            </Array>
          </mxGeometry>
        </mxCell>
      </root>
    </mxGraphModel>
  </diagram>
</mxfile>
